<svg width="9" height="15" viewBox="0 0 9 15" fill="none" xmlns="http://www.w3.org/2000/svg">
<path d="M1.02315 9.97504L5.60899 14.5609C5.89038 14.8421 6.27197 15.0001 6.66981 15C7.06766 14.9999 7.44917 14.8418 7.73042 14.5604C8.01167 14.279 8.16963 13.8974 8.16953 13.4996C8.16944 13.1017 8.01131 12.7202 7.72992 12.439L3.14408 7.8541C3.09752 7.80766 3.06057 7.75249 3.03537 7.69174C3.01016 7.631 2.99719 7.56588 2.99719 7.50012C2.99719 7.43435 3.01016 7.36923 3.03537 7.30849C3.06057 7.24775 3.09752 7.19257 3.14408 7.14613L7.72992 2.56128C8.01131 2.28002 8.16944 1.89851 8.16953 1.50066C8.16963 1.10282 8.01167 0.721232 7.73042 0.439846C7.44917 0.15846 7.06766 0.000325192 6.66981 0.000231735C6.27197 0.000138278 5.89038 0.158091 5.60899 0.439344L1.02315 5.0252C0.367941 5.68221 0 6.57223 0 7.50012C0 8.428 0.367941 9.31802 1.02315 9.97504Z" fill="#5C5C5C"/>
</svg>

