<svg width="24" height="24" viewBox="0 0 24 24" fill="none" xmlns="http://www.w3.org/2000/svg">
<path d="M12.5401 8.28994C12.633 8.19621 12.7436 8.12182 12.8655 8.07105C12.9873 8.02028 13.118 7.99414 13.2501 7.99414C13.3821 7.99414 13.5128 8.02028 13.6346 8.07105C13.7565 8.12182 13.8671 8.19621 13.9601 8.28994L16.9601 11.2899C17.0538 11.3829 17.1282 11.4935 17.179 11.6154C17.2297 11.7372 17.2559 11.8679 17.2559 11.9999C17.2559 12.132 17.2297 12.2627 17.179 12.3845C17.1282 12.5064 17.0538 12.617 16.9601 12.7099L13.9601 15.7099C13.8671 15.8037 13.7565 15.8781 13.6346 15.9288C13.5128 15.9796 13.3821 16.0057 13.2501 16.0057C13.118 16.0057 12.9873 15.9796 12.8655 15.9288C12.7436 15.8781 12.633 15.8037 12.5401 15.7099C12.4463 15.617 12.3719 15.5064 12.3212 15.3845C12.2704 15.2627 12.2443 15.132 12.2443 14.9999C12.2443 14.8679 12.2704 14.7372 12.3212 14.6154C12.3719 14.4935 12.4463 14.3829 12.5401 14.2899L14.8401 11.9999L12.5401 9.70994C12.4463 9.61698 12.3719 9.50638 12.3212 9.38452C12.2704 9.26266 12.2443 9.13195 12.2443 8.99994C12.2443 8.86793 12.2704 8.73722 12.3212 8.61536C12.3719 8.4935 12.4463 8.3829 12.5401 8.28994ZM9.34006 11.9999L7.00006 9.70994C6.81176 9.52164 6.70597 9.26624 6.70597 8.99994C6.70597 8.73364 6.81176 8.47824 7.00006 8.28994C7.18836 8.10164 7.44376 7.99585 7.71006 7.99585C7.97636 7.99585 8.23176 8.10164 8.42006 8.28994L11.4201 11.2899C11.5138 11.3829 11.5882 11.4935 11.639 11.6154C11.6897 11.7372 11.7159 11.8679 11.7159 11.9999C11.7159 12.132 11.6897 12.2627 11.639 12.3845C11.5882 12.5064 11.5138 12.617 11.4201 12.7099L8.42006 15.7099C8.3271 15.8037 8.2165 15.8781 8.09464 15.9288C7.97278 15.9796 7.84207 16.0057 7.71006 16.0057C7.57805 16.0057 7.44734 15.9796 7.32549 15.9288C7.20363 15.8781 7.09302 15.8037 7.00006 15.7099C6.90633 15.617 6.83194 15.5064 6.78117 15.3845C6.7304 15.2627 6.70426 15.132 6.70426 14.9999C6.70426 14.8679 6.7304 14.7372 6.78117 14.6154C6.83194 14.4935 6.90633 14.3829 7.00006 14.2899L9.34006 11.9999Z" fill="white"/>
</svg>

