<svg width="21" height="20" viewBox="0 0 21 20" fill="none" xmlns="http://www.w3.org/2000/svg">
<path d="M10.404 0C8.34632 0 6.33481 0.58649 4.62387 1.6853C2.91293 2.78412 1.57942 4.3459 0.791965 6.17317C0.0045079 8.00043 -0.201527 10.0111 0.199915 11.9509C0.601358 13.8907 1.59225 15.6725 3.04728 17.0711C4.50231 18.4696 6.35613 19.422 8.37432 19.8079C10.3925 20.1937 12.4844 19.9957 14.3855 19.2388C16.2866 18.4819 17.9115 17.2002 19.0547 15.5557C20.1979 13.9112 20.8081 11.9778 20.8081 10C20.8081 8.68678 20.539 7.38642 20.0161 6.17317C19.4933 4.95991 18.7269 3.85752 17.7608 2.92893C16.7947 2.00035 15.6478 1.26375 14.3855 0.761205C13.1232 0.258658 11.7703 0 10.404 0ZM10.404 18C8.75787 18 7.14865 17.5308 5.7799 16.6518C4.41116 15.7727 3.34435 14.5233 2.71438 13.0615C2.08442 11.5997 1.91959 9.99113 2.24074 8.43928C2.5619 6.88743 3.35461 5.46197 4.51863 4.34315C5.68266 3.22433 7.16571 2.4624 8.78026 2.15372C10.3948 1.84504 12.0683 2.00346 13.5892 2.60896C15.1101 3.21447 16.41 4.23984 17.3246 5.55544C18.2391 6.87103 18.7273 8.41775 18.7273 10C18.7273 12.1217 17.8504 14.1566 16.2895 15.6569C14.7286 17.1571 12.6115 18 10.404 18ZM14.5657 9H11.4444V6C11.4444 5.73478 11.3348 5.48043 11.1397 5.29289C10.9446 5.10536 10.68 5 10.404 5C10.1281 5 9.86348 5.10536 9.66837 5.29289C9.47326 5.48043 9.36364 5.73478 9.36364 6V9H6.24243C5.9665 9 5.70187 9.10536 5.50675 9.29289C5.31164 9.48043 5.20202 9.73478 5.20202 10C5.20202 10.2652 5.31164 10.5196 5.50675 10.7071C5.70187 10.8946 5.9665 11 6.24243 11H9.36364V14C9.36364 14.2652 9.47326 14.5196 9.66837 14.7071C9.86348 14.8946 10.1281 15 10.404 15C10.68 15 10.9446 14.8946 11.1397 14.7071C11.3348 14.5196 11.4444 14.2652 11.4444 14V11H14.5657C14.8416 11 15.1062 10.8946 15.3013 10.7071C15.4965 10.5196 15.6061 10.2652 15.6061 10C15.6061 9.73478 15.4965 9.48043 15.3013 9.29289C15.1062 9.10536 14.8416 9 14.5657 9Z" fill="white"/>
</svg>

