<svg width="18" height="22" viewBox="0 0 18 22" fill="none" xmlns="http://www.w3.org/2000/svg">
<path d="M18 13.9883C17.9978 13.388 17.8155 12.8022 17.4768 12.3066C17.1381 11.811 16.6585 11.4284 16.1 11.2083L17.97 4.20829C18.0091 4.05921 18.0131 3.90312 17.9819 3.7522C17.9507 3.60129 17.885 3.45963 17.79 3.33829C17.6929 3.2246 17.5715 3.13413 17.4348 3.07356C17.298 3.01299 17.1495 2.98385 17 2.98829H3.3L2.97 1.72829C2.91263 1.5152 2.78638 1.32708 2.61093 1.19323C2.43547 1.05938 2.22068 0.987322 2 0.988291H0V2.98829H1.23L3.71 12.2483C3.7686 12.4665 3.89934 12.6583 4.08092 12.7927C4.26251 12.9271 4.48424 12.996 4.71 12.9883H15C15.2652 12.9883 15.5196 13.0936 15.7071 13.2812C15.8946 13.4687 16 13.7231 16 13.9883C16 14.2535 15.8946 14.5079 15.7071 14.6954C15.5196 14.8829 15.2652 14.9883 15 14.9883H2C1.73478 14.9883 1.48043 15.0936 1.29289 15.2812C1.10536 15.4687 1 15.7231 1 15.9883C1 16.2535 1.10536 16.5079 1.29289 16.6954C1.48043 16.8829 1.73478 16.9883 2 16.9883H3.18C3.01554 17.4414 2.96269 17.9275 3.02593 18.4054C3.08917 18.8833 3.26665 19.3389 3.54332 19.7336C3.81999 20.1284 4.18772 20.4507 4.61535 20.6732C5.04299 20.8957 5.51795 21.0118 6 21.0118C6.48205 21.0118 6.95701 20.8957 7.38465 20.6732C7.81228 20.4507 8.18001 20.1284 8.45668 19.7336C8.73335 19.3389 8.91083 18.8833 8.97407 18.4054C9.03731 17.9275 8.98446 17.4414 8.82 16.9883H11.18C11.0303 17.4009 10.9729 17.8413 11.012 18.2785C11.051 18.7157 11.1856 19.139 11.406 19.5185C11.6265 19.8981 11.9276 20.2246 12.288 20.4751C12.6485 20.7256 13.0595 20.8939 13.4921 20.9682C13.9247 21.0426 14.3683 21.0211 14.7917 20.9053C15.215 20.7894 15.6078 20.5821 15.9424 20.298C16.2769 20.0138 16.545 19.6597 16.7277 19.2606C16.9105 18.8615 17.0034 18.4272 17 17.9883C16.9981 17.4717 16.8602 16.9646 16.6 16.5183C17.0276 16.2487 17.3802 15.8754 17.6249 15.4331C17.8697 14.9908 17.9987 14.4938 18 13.9883ZM14.09 10.9883H5.5L3.84 4.98829H15.7L14.09 10.9883ZM6 18.9883C5.80222 18.9883 5.60888 18.9296 5.44443 18.8198C5.27998 18.7099 5.15181 18.5537 5.07612 18.371C5.00043 18.1882 4.98063 17.9872 5.01921 17.7932C5.0578 17.5992 5.15304 17.421 5.29289 17.2812C5.43275 17.1413 5.61093 17.0461 5.80491 17.0075C5.99889 16.9689 6.19996 16.9887 6.38268 17.0644C6.56541 17.1401 6.72159 17.2683 6.83147 17.4327C6.94135 17.5972 7 17.7905 7 17.9883C7 18.2535 6.89464 18.5079 6.70711 18.6954C6.51957 18.8829 6.26522 18.9883 6 18.9883ZM14 18.9883C13.8022 18.9883 13.6089 18.9296 13.4444 18.8198C13.28 18.7099 13.1518 18.5537 13.0761 18.371C13.0004 18.1882 12.9806 17.9872 13.0192 17.7932C13.0578 17.5992 13.153 17.421 13.2929 17.2812C13.4327 17.1413 13.6109 17.0461 13.8049 17.0075C13.9989 16.9689 14.2 16.9887 14.3827 17.0644C14.5654 17.1401 14.7216 17.2683 14.8315 17.4327C14.9414 17.5972 15 17.7905 15 17.9883C15 18.2535 14.8946 18.5079 14.7071 18.6954C14.5196 18.8829 14.2652 18.9883 14 18.9883Z" fill="white"/>
</svg>
