<svg width="19" height="21" viewBox="0 0 19 21" fill="none" xmlns="http://www.w3.org/2000/svg">
<path d="M18.8779 13.634C18.8756 13.0045 18.6844 12.3901 18.3292 11.8703C17.9739 11.3505 17.4709 10.9493 16.8852 10.7184L18.8464 3.37705C18.8874 3.2207 18.8917 3.057 18.8589 2.89872C18.8262 2.74045 18.7573 2.59188 18.6576 2.46462C18.5558 2.34538 18.4284 2.25051 18.2851 2.18698C18.1417 2.12346 17.9859 2.0929 17.8291 2.09755H3.46094L3.11485 0.776101C3.05468 0.552619 2.92227 0.355317 2.73826 0.21494C2.55425 0.0745627 2.32898 -0.00100564 2.09754 1.01074e-05H0V2.09755H1.28999L3.89094 11.8092C3.9524 12.038 4.08951 12.2392 4.27995 12.3802C4.47039 12.5211 4.70294 12.5934 4.93971 12.5853H15.7316C16.0097 12.5853 16.2765 12.6958 16.4732 12.8924C16.6698 13.0891 16.7803 13.3559 16.7803 13.634C16.7803 13.9122 16.6698 14.1789 16.4732 14.3756C16.2765 14.5723 16.0097 14.6828 15.7316 14.6828H2.09754C1.81939 14.6828 1.55263 14.7933 1.35595 14.99C1.15927 15.1867 1.04877 15.4534 1.04877 15.7316C1.04877 16.0097 1.15927 16.2765 1.35595 16.4732C1.55263 16.6699 1.81939 16.7803 2.09754 16.7803H3.33509C3.16261 17.2556 3.10718 17.7654 3.17351 18.2666C3.23984 18.7678 3.42596 19.2456 3.71613 19.6596C4.0063 20.0736 4.39195 20.4116 4.84045 20.6449C5.28894 20.8783 5.78706 21.0001 6.29263 21.0001C6.79819 21.0001 7.29631 20.8783 7.7448 20.6449C8.1933 20.4116 8.57896 20.0736 8.86912 19.6596C9.15929 19.2456 9.34542 18.7678 9.41174 18.2666C9.47807 17.7654 9.42265 17.2556 9.25016 16.7803H11.7253C11.5682 17.2131 11.5081 17.675 11.5491 18.1335C11.59 18.592 11.7311 19.0359 11.9623 19.434C12.1936 19.832 12.5093 20.1745 12.8873 20.4372C13.2654 20.6999 13.6964 20.8764 14.1501 20.9544C14.6038 21.0324 15.069 21.0098 15.5131 20.8883C15.9571 20.7669 16.369 20.5495 16.7199 20.2514C17.0707 19.9534 17.3519 19.582 17.5435 19.1635C17.7352 18.7449 17.8327 18.2894 17.8291 17.8291C17.8272 17.2873 17.6825 16.7555 17.4096 16.2874C17.8581 16.0047 18.2278 15.6132 18.4845 15.1493C18.7412 14.6854 18.8765 14.1642 18.8779 13.634ZM14.7772 10.4877H5.76824L4.02728 4.19509H16.4657L14.7772 10.4877ZM6.29263 18.8779C6.0852 18.8779 5.88243 18.8164 5.70996 18.7011C5.53749 18.5859 5.40307 18.4221 5.32369 18.2305C5.24431 18.0388 5.22354 17.828 5.26401 17.6245C5.30447 17.4211 5.40436 17.2342 5.55103 17.0875C5.69771 16.9408 5.88458 16.841 6.08802 16.8005C6.29146 16.76 6.50234 16.7808 6.69397 16.8602C6.88561 16.9396 7.04941 17.074 7.16465 17.2465C7.27989 17.4189 7.3414 17.6217 7.3414 17.8291C7.3414 18.1073 7.2309 18.374 7.03422 18.5707C6.83754 18.7674 6.57078 18.8779 6.29263 18.8779ZM14.6828 18.8779C14.4754 18.8779 14.2726 18.8164 14.1001 18.7011C13.9277 18.5859 13.7932 18.4221 13.7139 18.2305C13.6345 18.0388 13.6137 17.828 13.6542 17.6245C13.6946 17.4211 13.7945 17.2342 13.9412 17.0875C14.0879 16.9408 14.2747 16.841 14.4782 16.8005C14.6816 16.76 14.8925 16.7808 15.0841 16.8602C15.2758 16.9396 15.4396 17.074 15.5548 17.2465C15.6701 17.4189 15.7316 17.6217 15.7316 17.8291C15.7316 18.1073 15.6211 18.374 15.4244 18.5707C15.2277 18.7674 14.9609 18.8779 14.6828 18.8779Z" fill="white"/>
</svg>

