<svg width="18" height="22" viewBox="0 0 18 22" fill="none" xmlns="http://www.w3.org/2000/svg">
<path d="M17.0001 7.01197L11.0001 1.75197C10.4501 1.26001 9.73803 0.988037 9.00009 0.988037C8.26216 0.988037 7.55012 1.26001 7.00009 1.75197L1.00009 7.01197C0.682463 7.29604 0.428995 7.64453 0.256567 8.03421C0.0841385 8.4239 -0.00329256 8.84585 9.47941e-05 9.27197V18.012C9.47941e-05 18.8076 0.316165 19.5707 0.878775 20.1333C1.44138 20.6959 2.20445 21.012 3.00009 21.012H15.0001C15.7957 21.012 16.5588 20.6959 17.1214 20.1333C17.684 19.5707 18.0001 18.8076 18.0001 18.012V9.26197C18.0021 8.83753 17.9139 8.41751 17.7416 8.02965C17.5692 7.64179 17.3165 7.29493 17.0001 7.01197ZM11.0001 19.012H7.00009V14.012C7.00009 13.7468 7.10545 13.4924 7.29299 13.3049C7.48052 13.1173 7.73488 13.012 8.00009 13.012H10.0001C10.2653 13.012 10.5197 13.1173 10.7072 13.3049C10.8947 13.4924 11.0001 13.7468 11.0001 14.012V19.012ZM16.0001 18.012C16.0001 18.2772 15.8947 18.5315 15.7072 18.7191C15.5197 18.9066 15.2653 19.012 15.0001 19.012H13.0001V14.012C13.0001 13.2163 12.684 12.4533 12.1214 11.8906C11.5588 11.328 10.7957 11.012 10.0001 11.012H8.00009C7.20444 11.012 6.44138 11.328 5.87877 11.8906C5.31616 12.4533 5.00009 13.2163 5.00009 14.012V19.012H3.00009C2.73488 19.012 2.48052 18.9066 2.29299 18.7191C2.10545 18.5315 2.00009 18.2772 2.00009 18.012V9.26197C2.00027 9.11998 2.03069 8.97967 2.08931 8.85035C2.14794 8.72103 2.23343 8.60568 2.3401 8.51197L8.34009 3.26197C8.52258 3.10165 8.75719 3.01323 9.00009 3.01323C9.243 3.01323 9.47761 3.10165 9.66009 3.26197L15.6601 8.51197C15.7668 8.60568 15.8523 8.72103 15.9109 8.85035C15.9695 8.97967 15.9999 9.11998 16.0001 9.26197V18.012Z" fill="white"/>
</svg>
